# xmcd
#
# Track frame offsets:
#	150
#	13112
#	26296
#	39314
#	50943
#	63601
#	76766
#	89957
#	102253
#	113895
#	125630
#	138905
#	152521
#	164296
#	176724
#	189450
#	202469
#	215811
#
# Disc length: 3050 seconds
#
# Revision: 1
# Processed by: cddbd v1.5.1PL0 Copyright (c) Steve Scherf et al.
# Submitted via: audiograbber 1.81.01
#
DISCID=0a0be812
DTITLE=Big Bill Broonzy - Sad Letter Blues
DYEAR=2002
DGENRE=Blues
TTITLE0=Good Boy
TTITLE1=It's A Low Down Dirty Shame
TTITLE2=Sad Letter Blues
TTITLE3=Sad Pencil Blues
TTITLE4=Night Time Is The Right Time
TTITLE5=Leaving On Easy Street
TTITLE6=Hell Ain't But A Mile And A Quarter
TTITLE7=Baby, Don't You Remember
TTITLE8=Mary Blues
TTITLE9=Too Many Drivers
TTITLE10=That's All Right Baby
TTITLE11=L. C. Blues
TTITLE12=My Last Goodbye To You
TTITLE13=Don't You Be No Fool
TTITLE14=Just A Dream
TTITLE15=Down And Lost In Mind
TTITLE16=Plow Hand Blues
TTITLE17=Jivin' Mr. Fuller Blues
EXTD=Walle upped this
EXTT0=
EXTT1=
EXTT2=
EXTT3=
EXTT4=
EXTT5=
EXTT6=
EXTT7=
EXTT8=
EXTT9=
EXTT10=
EXTT11=
EXTT12=
EXTT13=
EXTT14=
EXTT15=
EXTT16=
EXTT17=
PLAYORDER=
